<?xml version="1.0" encoding="UTF-8"?>
<svg xmlns="http://www.w3.org/2000/svg" xmlns:xlink="http://www.w3.org/1999/xlink" width="344pt" height="486pt" viewBox="0 0 344 486" version="1.1">
<g id="surface1">
<path style=" stroke:none;fill-rule:nonzero;fill:rgb(81.199646%,81.199646%,81.199646%);fill-opacity:1;" d="M 343 0 L 343 485 L 344 485 L 344 43 C 344 30.792969 347.707031 11.21875 343 0 "/>
<path style=" stroke:none;fill-rule:nonzero;fill:rgb(0%,0%,0%);fill-opacity:1;" d="M 154 4 C 151.761719 6.5 150.320313 7.488281 147 8 L 147 11 L 153 11 L 153 28 L 156 28 L 156 4 L 154 4 M 154 40 C 157.707031 60 160 80.359375 165 100 L 158 100 L 158 101 L 166 101 C 166 124.554688 174.582031 148.742188 178 172 C 172.785156 172.78125 167.804688 175 163 177 L 163 178 L 178 173 L 180 184 C 177.605469 184.648438 176.464844 185.03125 175 187 L 181 185 C 181 190.25 185 200.273438 182.878906 205 C 180.878906 209 172.785156 210.496094 169 212.632813 C 161.554688 217 153.203125 224 150 232 L 149 232 L 149 221 L 148 221 C 148 239.273438 135.46875 256.28125 141 275 L 136 275 L 136 276 L 142 276 C 142 282.695313 145.1875 288.277344 144 295 C 141.292969 294.007813 138.867188 293.285156 136 293 L 136 294 C 148.824219 297.398438 135.726563 310.730469 137.796875 319.28125 C 139.691406 327.101563 154.710938 337.117188 162 339.4375 C 173.171875 343 183.71875 327.375 193.828125 324.414063 C 199.886719 322.644531 206.800781 323.769531 213 322.523438 C 223.929688 320.320313 234.441406 313.773438 242.332031 306.101563 C 255.402344 293.390625 261.304688 273 258.789063 255 C 257.910156 248.734375 253.972656 242.425781 254.304688 236.039063 C 254.78125 226.828125 260.242188 218.078125 261.742188 209 C 263.941406 195.675781 262 180.507813 262 167 L 261 167 L 261 208 L 260 208 C 256.921875 200.402344 238.621094 185.574219 230 188.304688 C 220.839844 191.207031 214.714844 200 205.984375 203.636719 C 200 206.152344 193.207031 204.523438 187 206 C 186.679688 199 185 190.714844 183 184 C 187.589844 182.289063 192.203125 181 197 180 L 197 179 C 193.492188 179.179688 186.511719 182.59375 183.601563 180.222656 C 180.308594 177.550781 179.828125 165.203125 179 161 C 176.664063 147.332031 174 133.703125 171.855469 120 C 170.746094 113.21875 168.414063 107 170 100 C 166.691406 96.472656 166.371094 91.703125 166 87 L 183 88 L 183 87 C 178.714844 86.660156 169.769531 87.335938 166.515625 84.398438 C 163.292969 81.492188 163.589844 75 162.996094 71 C 161.460938 60.699219 159.4375 50.128906 157 40 L 154 40 M 28 59 C 29.851563 64 33.972656 66.671875 39 68 L 39 67 C 34.726563 65 31.5 62.136719 28 59 M 66 59 L 61 65 C 63.746094 63.53125 66 62.273438 66 59 M 107 59 C 108.3125 60.617188 108.878906 60.691406 111 61 L 111 60 L 107 59 M 230 59 L 230 62 L 231 62 C 230.75 60.546875 230.683594 60.246094 230 59 M 265 59 L 263 60 L 263 61 C 264.863281 60.644531 265.742188 60.726563 265 59 M 308 59 C 310 64.171875 313.554688 67 319 68 L 319 67 C 313.949219 65.382813 312 62 308 59 M 148 60 C 147.503906 66.507813 143.820313 67 138 67 L 138 68 C 143.457031 68 151 67.476563 148 60 M 180.667969 60.332031 C 180.222656 60.777344 181.277344 60.722656 181.332031 60.667969 C 181.777344 60.222656 180.722656 60.277344 180.667969 60.332031 M 188 60 L 188 61 L 191 61 C 189.753906 60.316406 189.453125 60.25 188 60 M 196 60 L 196 61 L 199 61 C 197.753906 60.316406 197.453125 60.25 196 60 M 10 61 L 11 62 L 10 61 M 112 61 L 112 62 L 115 62 C 113.753906 61.316406 113.453125 61.25 112 61 M 175 63 L 178 62 C 176.234375 61.597656 176.441406 61.710938 175 63 M 200 61 L 200 62 C 203.507813 64.109375 203 66.304688 202 70 C 205.675781 66.382813 205 62.535156 200 61 M 253 63 L 253 64 L 262 62 C 258.9375 61.09375 256 62.296875 253 63 M 116 62 L 116 63 C 120.335938 64 124.578125 64.808594 129 65 C 125 63.101563 120.351563 62.355469 116 62 M 230 63 C 233.523438 70 240.726563 68 247 66 L 247 65 C 239.921875 66.199219 236 68 230 63 M 10 65 L 10 66 L 13 65 C 16.464844 71 23.488281 74 28 79 C 28.316406 73.488281 14.84375 65 10 65 M 174 64 L 174 67 L 175 67 C 174.75 65.550781 174.683594 65.246094 174 64 M 249 64 L 249 65 L 252 65 C 250.753906 64.316406 250.453125 64.25 249 64 M 57 67 C 58.578125 66.316406 58.777344 66.195313 60 65 C 58.421875 65.683594 58.222656 65.804688 57 67 M 130 65 L 130 66 L 137 67 C 134.6875 65.605469 132.691406 65.234375 130 65 M 40 68 L 40 69 C 45.871094 70.089844 50.257813 69.3125 56 68 C 51.386719 66.578125 44.949219 68 40 68 M 175 68 L 175 69 C 182.601563 72.660156 192.710938 71 201 71 L 201 70 C 192.300781 70 183.277344 71.015625 175 68 M 320 68 L 320 69 C 322.378906 69.570313 324.558594 70 327 70 L 327 68 L 320 68 M 10.332031 69.667969 C 10.277344 69.722656 10.222656 70.777344 10.667969 70.332031 C 10.722656 70.277344 10.777344 69.222656 10.332031 69.667969 M 11 75 L 12 79 L 13 79 C 12.4375 77.246094 12 76.457031 11 75 M 30 79 C 36.257813 87 48.628906 97.75 59 98 L 59 97 C 47.414063 96.222656 39.898438 84 30 79 M 13 80 C 18.3125 90.699219 39.285156 104.625 50 110 C 40.652344 98.441406 24.894531 89 13 80 M 154 87 L 154 88 L 161 87 C 158.476563 86.011719 156.640625 86.382813 154 87 M 128 100 L 128 101 C 136.527344 98.300781 145 93.089844 153 89 C 145.90625 88 134.300781 96.683594 128 100 M 189 88 L 189 89 L 200 89 C 196.566406 87.558594 192.699219 88 189 88 M 202 89 L 202 90 L 219 91 C 213.835938 88.773438 207.5625 89 202 89 M 18 90 L 19 91 L 18 90 M 222 91 L 222 92 L 233 92 C 229.566406 90.558594 225.699219 91 222 91 M 235 92 L 235 93 L 256 94 C 249.851563 91.414063 241.613281 92 235 92 M 18 93 L 19 94 L 18 93 M 258 94 L 258 95 L 269 95 C 265.566406 93.558594 261.699219 94 258 94 M 271 95 L 271 96 L 292 97 C 286 94.519531 277.410156 95 271 95 M 18.332031 96.667969 C 18.277344 96.722656 18.222656 97.777344 18.667969 97.332031 C 18.722656 97.277344 18.777344 96.222656 18.332031 96.667969 M 293 97 L 293 98 L 304 98 C 300.566406 96.558594 296.699219 97 293 97 M 60 98 L 60 99 L 70 100 C 66.828125 98.101563 63.644531 98.03125 60 98 M 306 98 L 306 99 C 311.71875 99.449219 317.242188 100 323 100 C 317.835938 97.773438 311.5625 98 306 98 M 18 100 L 19 101 L 18 100 M 71 100 L 71 101 L 77 101 C 74.949219 100.125 73.253906 100.046875 71 100 M 171 100 L 172 101 L 171 100 M 325 100 L 325 101 L 328 101 C 326.753906 100.316406 326.453125 100.25 325 100 M 80 101 L 80 102 L 91 103 C 87.523438 101.152344 83.890625 101.03125 80 101 M 121 103 L 121 104 C 123.300781 103.601563 124.90625 103.042969 127 102 C 124.8125 101.714844 123 102.351563 121 103 M 150 103 L 150 104 L 157 102 C 154.394531 101.269531 152.550781 102.078125 150 103 M 177 101 L 177 102 L 195 103 C 189.476563 100.519531 182.945313 101 177 101 M 92 103 L 92 104 L 99 104 C 96.667969 103.015625 94.542969 103.019531 92 103 M 196 103 L 196 104 L 209 104 C 205 102.339844 200.261719 103 196 103 M 148 104 C 143.625 106.394531 136.988281 108.015625 134 112 C 139.214844 110.246094 144.179688 107.640625 149 105 L 148 104 M 214 104 L 214 105 L 232 106 C 226.535156 103.640625 219.875 104 214 104 M 18 105 L 19 106 L 18 105 M 235 106 L 235 107 L 245 107 C 241.835938 105.671875 238.414063 106 235 106 M 18.332031 107.667969 C 18.277344 107.722656 18.222656 108.777344 18.667969 108.332031 C 18.722656 108.277344 18.777344 107.222656 18.332031 107.667969 M 248 107 L 248 108 L 267 109 C 261.238281 106.515625 254.183594 107 248 107 M 268 109 L 268 110 L 280 110 C 276.304688 108.449219 271.984375 109 268 109 M 18 110 L 18 116 L 19 116 C 18.953125 113.746094 18.875 112.050781 18 110 M 51 110 L 51 111 L 55 112 L 55 111 L 51 110 M 285 110 L 285 111 C 300.46875 112.234375 301.175781 124.730469 287 130 L 287 131 C 290.351563 130.316406 295.46875 129.71875 296 126 C 298.359375 126.480469 299.664063 126.519531 302 126 L 302 125 L 298 126 C 299.730469 121.21875 300.722656 116.234375 296 113 L 296 112 L 302 112 C 296.765625 109.484375 290.683594 110 285 110 M 56 112 L 56 113 L 62 113 C 59.949219 112.125 58.253906 112.046875 56 112 M 95 118 L 95 119 L 109 119 C 107.652344 120.769531 106.878906 122 106 124 L 107 124 C 111.667969 117.722656 125.5 116.140625 133 113 C 128 112.023438 123.71875 116.378906 119 117.527344 C 111.605469 119.335938 102.589844 118 95 118 M 310 112 L 310 113 L 320 113 C 316.835938 111.671875 313.414063 112 310 112 M 63 113 L 63 114 C 69 114.761719 74.925781 116 81 116 C 75.78125 113.75 68.6875 113.117188 63 113 M 323 113 L 323 114 L 328 114 C 326.230469 113.222656 324.964844 113.089844 323 113 M 322 117 L 322 118 C 324.171875 117.535156 325.957031 117 328 116 C 325.632813 115.492188 324.269531 116.058594 322 117 M 82 116 L 82 117 C 85 117.5625 87.921875 118 91 118 C 88 116.269531 85.339844 116.070313 82 116 M 18 117 L 19 118 L 18 117 M 319.667969 118.332031 C 319.222656 118.777344 320.277344 118.722656 320.332031 118.667969 C 320.777344 118.222656 319.722656 118.277344 319.667969 118.332031 M 314 120 L 314 121 L 318 120 C 316.339844 119.59375 315.757813 119.691406 314 120 M 18 121 L 19 122 L 18 121 M 306 123 L 306 124 L 313 122 C 310.328125 121.199219 308.566406 122 306 123 M 303.667969 124.332031 C 303.222656 124.777344 304.277344 124.722656 304.332031 124.667969 C 304.777344 124.222656 303.722656 124.277344 303.667969 124.332031 M 18 125 L 19 126 L 18 125 M 105 125 C 105 145.402344 102.359375 167.804688 105.1875 188 C 106 195 111.949219 196.769531 118 195 L 118 194 C 105.863281 195.695313 106 186.414063 106 177 L 106 142 C 106 136.648438 107 130 105 125 M 18.332031 131.667969 C 18.277344 131.722656 18.222656 132.777344 18.667969 132.332031 C 18.722656 132.277344 18.777344 131.222656 18.332031 131.667969 M 279 133 L 279 134 C 281.550781 133.621094 283.628906 133.011719 286 132 C 283.535156 131.554688 281.453125 132.359375 279 133 M 326.667969 133.332031 C 326.222656 133.777344 327.277344 133.722656 327.332031 133.667969 C 327.777344 133.222656 326.722656 133.277344 326.667969 133.332031 M 271 136 L 271 137 C 273.550781 136.621094 275.628906 136.011719 278 135 C 275.464844 134.371094 273.515625 135.222656 271 136 M 321 135 L 321 136 L 325 135 C 323.191406 134.425781 322.929688 134.535156 321 135 M 18 136 L 19 137 L 18 136 M 318.667969 136.332031 C 318.222656 136.777344 319.277344 136.722656 319.332031 136.667969 C 319.777344 136.222656 318.722656 136.277344 318.667969 136.332031 M 266 138 L 266 139 L 270 138 C 268.191406 137.425781 267.929688 137.535156 266 138 M 306 141 L 306 142 C 309.777344 141 313.425781 139.59375 317 138 C 313.289063 137.101563 309.410156 139.464844 306 141 M 18 138 L 18 142 L 19 142 C 18.824219 140.316406 18.683594 139.507813 18 138 M 263.667969 139.332031 C 263.222656 139.777344 264.277344 139.722656 264.332031 139.667969 C 264.777344 139.222656 263.722656 139.277344 263.667969 139.332031 M 258 141 L 258 142 L 262 141 C 260.339844 140.59375 259.757813 140.691406 258 141 M 250 144 L 250 145 L 257 143 C 254.328125 142.199219 252.566406 143 250 144 M 298 144 L 298 145 L 305 143 C 302.328125 142.199219 300.566406 143 298 144 M 18 143 L 18 146 L 19 146 C 18.75 144.546875 18.683594 144.246094 18 143 M 247.667969 145.332031 C 247.222656 145.777344 248.277344 145.722656 248.332031 145.667969 C 248.777344 145.222656 247.722656 145.277344 247.667969 145.332031 M 283 150 L 283 151 C 289.722656 149.46875 293.523438 149 298 155 L 299 155 C 297.8125 151.617188 296.484375 150 293 149 C 294.449219 147.390625 295 147 297 146 C 292.613281 144.796875 287 148.195313 283 150 M 235 150 L 235 151 C 238.777344 150 242.425781 148.59375 246 147 C 242.292969 146.351563 238.398438 148.484375 235 150 M 18 148 L 19 149 L 18 148 M 231.667969 151.332031 C 231.222656 151.777344 232.277344 151.722656 232.332031 151.667969 C 232.777344 151.222656 231.722656 151.277344 231.667969 151.332031 M 275 153 L 275 154 L 282 152 C 279.394531 151.269531 277.550781 152.078125 275 153 M 18 152 L 18 157 L 19 157 C 18.910156 155.035156 18.777344 153.769531 18 152 M 207 160 L 207 161 C 214.765625 159.664063 222.8125 156.199219 230 153 C 223 151.792969 213.753906 158.15625 207 160 M 267 158 C 265.519531 157.015625 265.796875 157 264 157 L 263 163 L 264 163 C 266.71875 159.222656 269.644531 156.6875 274 155 C 270.820313 154.125 268.777344 155.316406 267 158 M 299 156 L 300 192 L 301 192 C 301 182 304.269531 164.796875 299 156 M 18 158 L 19 159 L 18 158 M 256 160 L 256 161 C 258.550781 160.621094 260.628906 160.011719 263 159 C 260.535156 158.554688 258.453125 159.359375 256 160 M 18 160 C 17.574219 162.46875 16.867188 164.644531 16 167 C 17.609375 165.550781 18 165 19 163 L 20 163 C 23.496094 170.078125 30.261719 168.457031 37 169 C 35.347656 171.710938 34.40625 174 34 177 L 35 177 L 38 168 C 39.800781 168.5625 41 168.824219 43 169 L 43 167 C 31.835938 167 26.367188 167.601563 18 160 M 191 166 L 191 167 C 196.214844 166.21875 201.195313 164.140625 206 162 C 201.339844 161 195.601563 164.742188 191 166 M 245 164 L 245 165 C 248.554688 164.476563 251.71875 163.453125 255 162 C 251.65625 161.414063 248.3125 163.214844 245 164 M 6 164 C 6.898438 166.125 6.875 166.101563 9 167 C 7.894531 165.542969 7.457031 165.101563 6 164 M 235 166 L 235 167 C 237.992188 166.15625 240.917969 165.414063 244 165 C 240.683594 163.648438 238 164.484375 235 166 M 262.332031 164.667969 C 262.277344 164.722656 262.222656 165.777344 262.667969 165.332031 C 262.722656 165.277344 262.777344 164.222656 262.332031 164.667969 M 10 167 L 10 168 L 14 168 C 12.492188 167.316406 11.683594 167.175781 10 167 M 187 169 C 188.578125 168.316406 188.777344 168.195313 190 167 C 188.421875 167.683594 188.222656 167.804688 187 169 M 231 170 C 232.457031 169 232.898438 168.457031 234 167 C 232 168 232 168.074219 231 170 M 183 169 L 183 170 L 186 170 C 184.753906 169.316406 184.453125 169.25 183 169 M 229 170 C 226.414063 171.644531 223.851563 173 221 174 L 221 175 C 223.589844 174.378906 230 173.128906 229 170 M 8 175 L 9 176 L 8 175 M 11 175 L 12 176 L 11 175 M 16 175 L 16 176 L 20 176 C 18.492188 175.316406 17.683594 175.175781 16 175 M 21 175 L 21 176 L 26 176 C 24.230469 175.222656 22.964844 175.089844 21 175 M 28 175 L 29 176 L 28 175 M 37 175 C 32.835938 197.195313 35 221.273438 35 244 L 35 434 C 35 446 33.238281 459.394531 36 471 L 37 471 C 34.71875 453 36 434.203125 36 416 L 36 322 C 36 311.414063 30.574219 278.59375 43 275 L 43 274 C 40 274.316406 38.664063 274.621094 37 277 L 36 277 L 36 201 C 36 192.441406 33 179.46875 43 176 C 40.949219 175.125 39.253906 175.046875 37 175 M 214 177 L 214 178 L 220 176 C 217.539063 175.304688 216.335938 176 214 177 M 44 176 L 44 177 L 48 178 L 48 177 L 44 176 M 49 178 L 49 182 L 50 182 C 49.824219 180.316406 49.683594 179.507813 49 178 M 155 181 L 161 179 C 158.277344 178.191406 156.707031 178.75 155 181 M 198 178 L 198 179 L 203 179 C 201.230469 178.222656 199.964844 178.089844 198 178 M 210.667969 178.332031 C 210.222656 178.777344 211.277344 178.722656 211.332031 178.667969 C 211.777344 178.222656 210.722656 178.277344 210.667969 178.332031 M 204 179 L 204 180 L 207 180 C 205.753906 179.316406 205.453125 179.25 204 179 M 147 183 L 147 184 L 154 182 C 151.328125 181.199219 149.566406 182 147 183 M 139 186 L 139 187 L 146 185 C 143.328125 184.199219 141.566406 185 139 186 M 50 185 C 50.351563 188.4375 51.3125 191 53 194 L 54 194 C 52.8125 191 51.761719 187.785156 50 185 M 135.667969 187.332031 C 135.222656 187.777344 136.277344 187.722656 136.332031 187.667969 C 136.777344 187.222656 135.722656 187.277344 135.667969 187.332031 M 166 194 L 174 188 C 170.21875 188 167.839844 191 166 194 M 128 190 L 128 191 C 130 190.496094 131.980469 190 134 189 C 131.726563 188.589844 130.21875 189.210938 128 190 M 149 325 C 129.746094 327 147.59375 296.398438 146.390625 288 C 144.835938 277.128906 141.242188 268.476563 142 257 C 143.671875 235.5625 162.867188 211.207031 185 209 L 185 213 L 188 213 C 188.804688 203 201.421875 207.828125 208 205 C 216 201.234375 225.304688 188.191406 235 190.425781 C 240.257813 191.632813 244.785156 196.210938 249 199.351563 C 252.734375 202.132813 257.90625 205 258.59375 210 C 259.710938 218.363281 253.1875 227.460938 253 236 C 252.792969 247.191406 257.699219 257.480469 256.910156 269 C 255.351563 291.71875 239.582031 312 218 319.027344 C 210.21875 321.605469 202.875 321.050781 195 322.304688 C 178.6875 325 170.253906 346.761719 153.757813 331.320313 C 151.699219 329.394531 150.300781 327.46875 149 325 M 119 193 L 119 194 C 121.773438 193.589844 124.328125 193 127 192 C 124.25 191.421875 121.75 192.375 119 193 M 55 194 C 57 197.433594 60 198.332031 64 199 L 64 198 C 60.789063 197 57.882813 195.773438 55 194 M 301 194 C 301.378906 196.550781 301.988281 198.628906 303 201 L 304 201 C 303.285156 198.410156 302.484375 196.234375 301 194 M 153 199 L 153 200 C 155.773438 199.589844 158.328125 199 161 198 C 158.199219 197.21875 155.804688 198.261719 153 199 M 223 204 L 229 200 C 226.433594 202.554688 222.285156 204.761719 221 208 C 224.304688 208 222 212.300781 222 215 L 223 215 C 224.253906 206 229.753906 200.480469 239 200 L 239 199 L 229 200 L 229 199 L 235 198 C 229.976563 196.261719 225.84375 200.171875 223 204 M 236 197 L 236 198 C 240.425781 198.664063 243.523438 200.195313 247 203 C 244.671875 201.816406 242.488281 200.777344 240 200 L 240 201 C 261 212 233.804688 239 224 216 L 223 216 C 223.863281 220.285156 226 223 229 226 L 223 222 C 225.65625 225.457031 227.648438 226.480469 232 226 L 232 227 C 230 227 230.648438 226.699219 230 228 C 234.222656 229.003906 237.777344 229.003906 242 228 L 242 227 L 239 227 L 239 226 C 245.632813 226.679688 248.859375 224.433594 251 218 L 250 218 L 249 221 L 248 221 C 249.613281 216.578125 249.996094 212.683594 250 208 L 251 208 L 251 217 C 256.785156 207.03125 245.203125 197.476563 236 197 M 65 199 L 65 200 L 71 200 C 68.949219 199.125 67.253906 199.046875 65 199 M 74 200 L 74 201 L 93 203 C 87.167969 200 80.453125 200 74 200 M 145 202 L 145 203 C 147.46875 202.574219 149.644531 202 152 201 C 149.464844 200.371094 147.515625 201.222656 145 202 M 304 202 C 306.246094 206.300781 309.222656 209.699219 314 211 L 314 210 C 310.320313 207.640625 307.386719 204.695313 304 202 M 131 207 L 131 208 C 138.269531 206.769531 141.792969 205.785156 147 212 L 148 212 C 146.976563 208.601563 145.398438 207.023438 142 206 L 143 203 C 138.871094 204 135 205.683594 131 207 M 248 203 L 250 208 L 249 208 C 248 206 247.589844 205.140625 248 203 M 229 207 L 229 208 C 238.523438 205 242.757813 208 242 218 C 249.289063 208.375 237 202.746094 229 207 M 80 208 L 80 209 C 81.875 208.453125 83.253906 208 85 207 C 82.976563 206.730469 81.957031 207.191406 80 208 M 123 210 L 123 211 L 130 209 C 127.328125 208.199219 125.566406 209 123 210 M 78 209 C 67.175781 219.640625 78.628906 224 89 224 L 89 223 C 84.78125 223 74.6875 223.347656 74.636719 217 C 74.609375 213.726563 78 212.027344 78 209 M 220 209 C 220 213.378906 220 217.007813 222 221 L 223 221 C 221.566406 217.066406 221.574219 212.746094 220 209 M 98 219 L 98 220 C 100.46875 219.574219 102.644531 219 105 218 C 104 219.746094 103.546875 221.125 103 223 L 104 223 C 108 216.230469 114.695313 214 122 212 C 115.367188 210.046875 104.519531 217 98 219 M 228 211 C 228 215.496094 229 217.59375 233 220 C 230.863281 217.035156 229.53125 214.25 228 211 M 316 211 L 316 212 L 328 218 L 328 217 C 324 214.496094 320.460938 212.285156 316 211 M 148 215 L 148 220 L 149 220 C 148.910156 218.035156 148.777344 216.769531 148 215 M 238 220 C 239.578125 219.316406 239.777344 219.195313 241 218 C 239.421875 218.683594 239.222656 218.804688 238 220 M 90 222 L 90 223 L 97 221 C 94.394531 220.269531 92.550781 221.078125 90 222 M 234 220 L 234 221 L 237 221 C 235.753906 220.316406 235.453125 220.25 234 220 M 328 220 L 328 223 L 329 223 C 328.75 221.546875 328.683594 221.246094 328 220 M 248 221 C 246.675781 223.6875 245.6875 224.675781 243 226 C 244.523438 224.023438 246 222.53125 248 221 M 191 223.464844 C 163.242188 228.46875 150.964844 263.632813 166.75 286.089844 C 177.335938 301.148438 194.625 305.371094 212 301.675781 C 236 296.570313 246.710938 265.757813 236.675781 245.039063 C 228.242188 227.625 209.5 220.128906 191 223.464844 M 102 224 L 102 253 C 102 257.109375 101 262.679688 103.304688 266.332031 C 107.351563 273 117 274 124 274 L 124 273 C 119.828125 272.46875 114.878906 272.195313 111 270.484375 C 94.726563 263.316406 107.347656 236.742188 102 224 M 194 224.324219 C 243.59375 216.0625 255.652344 293.074219 206 301.40625 C 156.734375 309.671875 144.347656 232.597656 194 224.324219 M 193 226 L 193 227 L 198 227 C 196.230469 226.222656 194.964844 226.089844 193 226 M 202 226 L 202 227 L 209 227 C 206.667969 226.015625 204.542969 226.019531 202 226 M 186 228 L 186 229 L 191 228 C 189 227.378906 188 227.5625 186 228 M 210 227 L 210 228 C 212 229 213.855469 229.496094 216 230 L 216 231 C 210 231 184.238281 232.046875 185 229 C 177 231.09375 174.207031 244.675781 169.804688 251.222656 C 168.582031 253.042969 165.757813 259.519531 164 258 L 163 258 L 163 268 L 164 268 C 164 266.203125 164 266.480469 165 265 C 168.425781 275 179.441406 284.574219 180 295 C 182.679688 296.191406 185 297.351563 188 298 L 188 297 L 184 296 L 184 295 C 201.734375 295 226 300.613281 233 279 L 232 279 C 229.261719 284.710938 224.832031 289 220 293 C 223.796875 286.371094 227.691406 279.765625 231.246094 273 C 232.261719 271.0625 233.796875 267.113281 236 268 L 237 268 L 237 258 L 236 258 L 235 260 C 231.496094 250.429688 222.660156 242.101563 221 232 C 217.480469 229.78125 214 228.105469 210 227 M 238 227 L 238 228 L 233 228 C 234.769531 227.222656 236 227.089844 238 227 M 182 232 C 192.464844 233.453125 205.941406 229.269531 215.816406 232.820313 C 221.210938 234.761719 224 243.429688 226.800781 248 C 229 252 233.628906 257.433594 234 262 C 234.820313 267.550781 221.886719 290.070313 216.671875 292.398438 C 211.980469 294.492188 204 293 199 293 C 194.632813 293 186.371094 294.578125 182.636719 292 C 178.609375 289.160156 175.722656 281.25 173.335938 277 C 170.683594 272.269531 165.1875 266.824219 166.433594 261 C 168.613281 250.824219 177.980469 241.652344 182 232 M 177 233 C 174.371094 235.523438 172.367188 237.613281 171 241 L 172 241 C 173.726563 238.558594 177 236 177 233 M 222 233 C 224.289063 236.246094 226.753906 238.710938 230 241 C 227.785156 237.613281 225.386719 235.214844 222 233 M 304 250 C 318 251.773438 325.742188 250.746094 337 242 C 330.363281 240.644531 322.957031 250.152344 315 250 C 304.453125 249.660156 298.8125 240.050781 289 238.328125 C 271.496094 235.261719 257.378906 256.335938 268.554688 271 C 284.449219 291.761719 309.621094 271.730469 304 250 M 282 239.472656 C 305.199219 234.023438 312.796875 271.429688 290 277.292969 C 264.957031 283.730469 257 245.324219 282 239.472656 M 169 242 L 170 243 L 169 242 M 230 242 L 232 247 L 233 247 C 232.25 244.746094 231.65625 243.6875 230 242 M 167 244 L 167 246 C 168.636719 245.453125 168.453125 245.636719 169 244 L 167 244 M 166 247 L 167 248 L 166 247 M 215 247 L 216 248 L 215 247 M 217.667969 247.332031 C 217.222656 247.777344 218.277344 247.722656 218.332031 247.667969 C 218.777344 247.222656 217.722656 247.277344 217.667969 247.332031 M 177 249 L 177 250 L 181 249 C 179.191406 248.425781 178.929688 248.535156 177 249 M 187 248 C 188.222656 249.195313 188.421875 249.316406 190 250 C 188.777344 248.804688 188.578125 248.683594 187 248 M 210 249 L 210 250 L 214 249 C 212.191406 248.425781 211.929688 248.535156 210 249 M 220 248 L 220 249 C 223.1875 250.390625 226 252.210938 229 254 C 226.46875 250.730469 224 249 220 248 M 233 248 L 235 254 L 236 254 C 235.46875 251.308594 234.882813 250 233 248 M 283 248.667969 C 269.679688 252.503906 275.347656 272.34375 288.996094 268.566406 C 301.300781 265.160156 295 245.179688 283 248.667969 M 165 250 L 164 254 L 165 254 C 165.464844 252.070313 165.574219 251.808594 165 250 M 175 250 C 172.371094 252.441406 171 254.5625 170 258 L 171 258 C 172.472656 255.386719 174.417969 253 175 250 M 182 250 L 182 251 L 185 251 C 183.753906 250.316406 183.453125 250.25 182 250 M 191 250 L 191 251 C 193 252.394531 194.628906 253.347656 197 254 L 197 253 L 191 250 M 208 250 L 204 252 L 204 253 C 206.242188 252.480469 207.621094 252.285156 208 250 M 209 255 C 212.324219 253.101563 215.199219 251.601563 219 251 C 214.785156 249.511719 211.636719 251.757813 209 255 M 282 250.605469 C 292.933594 246.453125 299.710938 262.546875 288.957031 267.140625 C 278 271.796875 271.945313 254.4375 282 250.605469 M 175 255 L 181 252 C 178 251.300781 176.578125 252.488281 175 255 M 186 251 L 186 252 L 189 253 C 187.777344 251.804688 187.578125 251.683594 186 251 M 220 251 L 220 252 C 225.761719 254.753906 226.945313 259 227 265 L 228 265 C 228.917969 258.441406 226.734375 253 220 251 M 278 258 L 279 258 C 282.597656 251.445313 288.625 251 292 258 C 294.40625 249.078125 280.285156 250 278 258 M 190 253 L 192 257 L 193 257 C 192 255.234375 191.433594 254.394531 190 253 M 229 255 C 230.59375 263.59375 228 266.824219 224 274 C 230.5625 270.484375 233.320313 261.324219 229 255 M 173 256 L 173 258 C 174.636719 257.453125 174.453125 257.636719 175 256 L 173 256 M 208 256 C 207 259.039063 207 261.832031 207 265 L 208 265 C 208 262.003906 208.457031 259 208 256 M 183.898438 258.175781 C 179.78125 257.742188 178.742188 264.015625 183 264.535156 C 187 265.027344 187.832031 258.589844 183.898438 258.175781 M 217 258.175781 C 213.253906 258.726563 214 265.039063 217.960938 264.535156 C 221.894531 264.023438 220.980469 257.617188 217 258.175781 M 193 258 L 193 265 L 194 265 C 193.980469 262.457031 193.984375 260.332031 193 258 M 185 259 L 185 263 L 181 263 C 181.839844 260.375 182.375 260 185 259 M 220 260 L 220 262 C 217.800781 262.480469 217.199219 262.480469 215 262 L 215 260 C 217.199219 259.519531 217.800781 259.519531 220 260 M 169 260 L 169 264 L 170 264 C 169.824219 262.316406 169.683594 261.507813 169 260 M 278 260 C 278.40625 262.09375 278.21875 262.019531 280 263 C 279.308594 261.613281 279 261.140625 278 260 M 292 260 C 290.964844 262.3125 290 263.453125 288 265 L 288 266 C 290.820313 264.585938 292.675781 263.289063 292 260 M 280 264 C 281.222656 265.195313 281.421875 265.316406 283 266 L 283 265 L 280 264 M 173 265 L 175 269 L 176 269 C 175 267.234375 174.433594 266.394531 173 265 M 170 266 C 171.648438 270.253906 173.859375 273.027344 178 275 L 178 274 C 174.878906 271.683594 172.78125 268.660156 170 266 M 191 266 L 188 271 C 190 269.449219 191.449219 268.136719 193 266 L 191 266 M 208 266 L 209 267 L 208 266 M 226 266 C 219.753906 271.550781 216.351563 270.609375 209 268 L 209 269 C 213.703125 271.363281 225.386719 274.53125 226 266 M 102 268 C 98.4375 272.066406 94.441406 274.042969 89 274 L 89 275 L 91 276 L 91 277 C 89.6875 277.769531 89.769531 277.6875 89 279 C 93 276.394531 102 273.328125 102 268 M 177 269 C 179.414063 272.421875 183 272 187 272 L 187 271 C 183.304688 271 180.410156 270.445313 177 269 M 164 270 L 165 276 L 166 276 C 165.644531 273.660156 165.226563 272.011719 164 270 M 235 271 C 234.574219 273.46875 233.867188 275.644531 233 278 C 235.496094 276.101563 236 274 235 271 M 201 273.257813 C 196.875 273.664063 196.722656 280.132813 201 280.132813 C 205.574219 280.136719 205.601563 272.800781 201 273.257813 M 44 274 L 45 275 L 44 274 M 46 274 L 47 275 L 46 274 M 49 274 L 50 275 L 49 274 M 51 274 L 52 275 L 51 274 M 53 274 L 54 275 L 53 274 M 55 274 L 55 275 L 58 275 C 56.753906 274.316406 56.453125 274.25 55 274 M 59.667969 274.332031 C 59.222656 274.777344 60.277344 274.722656 60.332031 274.667969 C 60.777344 274.222656 59.722656 274.277344 59.667969 274.332031 M 63 274 L 64 275 L 63 274 M 65 274 L 66 275 L 65 274 M 67.667969 274.332031 C 67.222656 274.777344 68.277344 274.722656 68.332031 274.667969 C 68.777344 274.222656 67.722656 274.277344 67.667969 274.332031 M 75 274 L 76 275 L 75 274 M 77 274 L 78 275 L 77 274 M 82 274 L 83 275 L 82 274 M 85 274 L 86 275 L 85 274 M 127 274 L 127 275 L 135 275 C 132.386719 274 129.835938 274.007813 127 274 M 202 274 L 203 278 L 199 278 L 200 274 L 202 274 M 218 276 L 218 277 L 223 275 C 220.859375 274.589844 220 275.03125 218 276 M 179 275 C 179.546875 276.636719 179.363281 276.453125 181 277 L 181 275 L 179 275 M 166 277 C 167.59375 283.699219 172.960938 290 179 293 L 179 292 C 173.492188 287.714844 170.566406 282.027344 166 277 M 182 277 L 182 278 C 185.644531 279.738281 189.203125 281.640625 193 283 L 193 282 C 189.425781 279.816406 186 277.796875 182 277 M 202 284 L 202 285 C 207.445313 283.5 212 280.632813 217 278 C 212 277.296875 206.492188 282.128906 202 284 M 88 280 L 88 419 C 88 435.328125 82.902344 462.015625 92 476 C 75.421875 476 57.320313 478.03125 41 475 L 41 476 C 57.613281 482.054688 82.539063 478.121094 100.171875 478 C 108.5 477.765625 118.394531 475.410156 123 484 L 124 484 C 120.597656 467.503906 97.550781 483.464844 90.574219 471 C 86.585938 463.804688 89 451 89 443 L 89 385 C 89 377.441406 86.894531 366.113281 89.742188 359.039063 C 92 353.28125 99 353.175781 103 349 L 104 349 C 105.902344 352.191406 107.40625 354 111 355 L 111 354 C 100.832031 348.082031 105.640625 324.320313 106 314 L 107 314 C 109.957031 320.015625 117.757813 324.023438 124 326 L 124 325 C 109.738281 317.410156 102.441406 308.761719 107 292 C 102.769531 296.140625 104 302.4375 104 308 C 104 319.222656 106.613281 334.179688 103.566406 345 C 101.796875 351.269531 93.59375 352.320313 89 356 L 89 303 C 89 293.753906 88.703125 285.164063 100 284 L 100 283 C 95.523438 283.207031 92.570313 284.277344 89 287 C 88.980469 284.457031 88.984375 282.332031 88 280 M 194 283 L 194 284 L 201 286 L 201 285 C 198.675781 284.121094 196.4375 283.507813 194 283 M 101 284 L 101 285 C 104.679688 285.757813 108.246094 286.695313 112 287 L 112 286 L 101 284 M 113 287 L 113 288 L 118 289 L 118 288 L 113 287 M 107 290 L 107 291 L 113 290 C 110.761719 289.1875 109.351563 289.472656 107 290 M 119 289 L 119 290 L 123 290 C 121.492188 289.316406 120.683594 289.175781 119 289 M 124 290 L 124 291 L 134 293 C 130.882813 291.042969 127.648438 290.320313 124 290 M 212 298 C 213.578125 297.316406 213.777344 297.195313 215 296 C 213.421875 296.683594 213.222656 296.804688 212 298 M 189 298 L 189 299 L 192 299 C 190.753906 298.316406 190.453125 298.25 189 298 M 209.667969 298.332031 C 209.222656 298.777344 210.277344 298.722656 210.332031 298.667969 C 210.777344 298.222656 209.722656 298.277344 209.667969 298.332031 M 194 299 L 194 300 L 206 300 C 202.304688 298.449219 197.984375 299 194 299 M 161 301 L 162 302 L 161 301 M 146 314 C 149.359375 314 148 319.203125 148 322 L 147 322 L 147 320 L 146 320 L 147 325 C 148.195313 324.402344 147.976563 324.535156 149 323 C 151.285156 327.824219 154.617188 330.621094 160 331 L 160 332 L 157 332 L 157 333 C 164.457031 334.753906 170.753906 332.421875 175 326 C 173.753906 324.800781 173.925781 325 174 323 C 175 324.535156 174.804688 324.402344 176 325 C 177.554688 320.730469 178.296875 317.425781 177 313 C 176.316406 314.246094 176.25 314.546875 176 316 L 175 316 C 175.761719 308.746094 173.566406 303.808594 166 302 C 166.648438 305.238281 156.355469 304.578125 157 302 C 151.367188 304.183594 147.414063 308.054688 146 314 M 156 304 L 156 305 C 152.847656 307 150.910156 309 149 312 C 148.40625 307.578125 152.210938 305.300781 156 304 M 168 304 C 171.359375 305.78125 173.21875 307.640625 175 311 L 170 307 C 174.1875 315.003906 172.277344 319.628906 173 328 C 170 330.125 167.609375 331.425781 164 332 L 164 331 C 167.339844 330 169.617188 328.574219 172 326 C 168.652344 327.753906 164.9375 330.40625 161 330.292969 C 150.550781 330 145 315.8125 152.53125 308.613281 C 157.6875 303.640625 163.921875 305.105469 170 307 L 170 306 L 167 305 L 168 304 M 160 309 L 160 310 C 164 310.234375 166.589844 313 170 315 C 167.304688 311.351563 164.679688 308.730469 160 309 M 242 308 L 242 309 C 244.6875 309.5 247.269531 310 250 310 C 247.398438 308.4375 245 308.136719 242 308 M 154 311 C 153.972656 314.21875 152.769531 319 154.691406 321.671875 C 160 329.449219 168.757813 323.386719 169 316 L 168 316 C 165.628906 331.199219 147 318.28125 159 311 C 157 310.53125 155.929688 310.699219 154 311 M 252 310 L 252 311 L 257 311 C 255.230469 310.222656 253.964844 310.089844 252 310 M 105.667969 311.667969 C 105.722656 311.722656 105.777344 312.777344 105.332031 312.332031 C 105.277344 312.277344 105.222656 311.222656 105.667969 311.667969 M 258 311 L 258 312 C 262.335938 313 266.578125 313.808594 271 314 C 267 312.070313 262.417969 311.203125 258 311 M 272 314 L 272 315 C 274.6875 315.5 277.269531 316 280 316 C 277.398438 314.4375 275 314.136719 272 314 M 145.332031 316.667969 C 145.277344 316.722656 145.222656 317.777344 145.667969 317.332031 C 145.722656 317.277344 145.777344 316.222656 145.332031 316.667969 M 282 316 L 282 317 L 287 317 C 285.230469 316.222656 283.964844 316.089844 282 316 M 176 317 L 176 323 L 175 323 C 175 320.746094 175 319.050781 176 317 M 288 317 L 288 318 C 296.707031 318.765625 303.917969 322.820313 313 323 C 306 320 295.65625 317.351563 288 317 M 304 323 C 305.792969 327.492188 307.769531 331.0625 308 336 L 309 336 C 308.886719 330.707031 307.777344 326.832031 304 323 M 314 323 L 314 324 C 316.6875 324.5 319.269531 325 322 325 C 319.398438 323.4375 317 323.136719 314 323 M 323 325 L 323 326 L 327 326 C 325.492188 325.316406 324.683594 325.175781 323 325 M 125 326 L 125 327 C 127.945313 328.800781 130.871094 330.539063 134 332 C 131.449219 329.003906 128.6875 327.351563 125 326 M 149 327 L 148 328 L 149 327 M 136 332 C 139.371094 337.003906 143.328125 339.480469 144 346 L 145 346 C 144.835938 339.121094 142.21875 335.023438 136 332 M 308 337 L 308 342 L 309 342 C 308.910156 340.035156 308.777344 338.769531 308 337 M 308 343 L 309 344 L 308 343 M 308 345 L 308 351 L 309 351 C 308.953125 348.746094 308.875 347.050781 308 345 M 144 349 L 145 350 L 144 349 M 144 351 L 144 358 L 145 358 C 144.980469 355.457031 144.984375 353.332031 144 351 M 308 352 L 308 363 L 309 363 C 309.558594 359.507813 310.492188 357.503906 313 355 L 313 354 L 309 356 C 308.824219 354.316406 308.683594 353.507813 308 352 M 112.667969 354.332031 C 112.222656 354.777344 113.277344 354.722656 113.332031 354.667969 C 113.777344 354.222656 112.722656 354.277344 112.667969 354.332031 M 118 354 L 119 355 L 118 354 M 121 356 C 123.378906 355.429688 125.558594 355.109375 128 355 C 125.265625 354 123 353.707031 121 356 M 129 354 L 129 355 L 133 355 C 131.492188 354.316406 130.683594 354.175781 129 354 M 135 354 L 136 355 L 135 354 M 137 354 L 137 355 L 142 356 L 142 355 L 137 354 M 319.667969 354.332031 C 319.222656 354.777344 320.277344 354.722656 320.332031 354.667969 C 320.777344 354.222656 319.722656 354.277344 319.667969 354.332031 M 322 354 L 323 355 L 322 354 M 325 354 L 325 355 L 328 355 C 326.753906 354.316406 326.453125 354.25 325 354 M 123.332031 356.667969 C 123.277344 356.722656 123.222656 357.777344 123.667969 357.332031 C 123.722656 357.277344 123.777344 356.222656 123.332031 356.667969 M 144 359 L 145 360 L 144 359 M 144 364 L 145 365 L 144 364 M 308 364 L 308 374 L 309 374 C 309 370.585938 309.328125 367.164063 308 364 M 144 370 L 145 371 L 144 370 M 308 375 L 308 382 L 309 382 C 308.980469 379.457031 308.984375 377.332031 308 375 M 144 376 L 144 379 L 145 379 C 144.75 377.546875 144.683594 377.246094 144 376 M 144 381 L 145 382 L 144 381 M 308 383 L 308 391 L 309 391 C 308.992188 388.164063 309 385.613281 308 383 M 144.332031 385.667969 C 144.277344 385.722656 144.222656 386.777344 144.667969 386.332031 C 144.722656 386.277344 144.777344 385.222656 144.332031 385.667969 M 144 389 L 144 392 L 145 392 C 144.75 390.546875 144.683594 390.246094 144 389 M 308 392 L 308 404 L 241 404 C 229.71875 404 217 402.378906 206 405 L 206 406 L 241 406 C 244.566406 406 249.648438 405.132813 252.851563 407.027344 C 257.296875 409.660156 257.355469 419 252.851563 421.425781 C 247.675781 424.351563 239.714844 423 234 423 C 220.324219 423 197.425781 426.785156 205 406 L 204 406 C 199.359375 415.640625 205.386719 420.070313 206.785156 429 C 208.984375 443.027344 208.429688 461.691406 204 475 L 205 475 C 211.457031 463.46875 210 436.761719 207 424 L 242 424 C 245.882813 424 251.90625 425.101563 254.96875 422.105469 C 258.667969 418.484375 257 410.445313 256 406 L 328 406 L 328 404 L 309 404 C 309 400.015625 309.550781 395.695313 308 392 M 144 394 L 145 395 L 144 394 M 144 400 L 145 401 L 144 400 M 144.332031 404.667969 C 144.277344 404.722656 144.222656 405.777344 144.667969 405.332031 C 144.722656 405.277344 144.777344 404.222656 144.332031 404.667969 M 144.332031 407.667969 C 144.277344 407.722656 144.222656 408.777344 144.667969 408.332031 C 144.722656 408.277344 144.777344 407.222656 144.332031 407.667969 M 144.332031 411.667969 C 144.277344 411.722656 144.222656 412.777344 144.667969 412.332031 C 144.722656 412.277344 144.777344 411.222656 144.332031 411.667969 M 144 418 L 145 419 L 144 418 M 207 423 L 206 424 L 207 423 M 144 425 L 145 426 L 144 425 M 252 425 C 250.84375 440.710938 248.773438 459.515625 252 475 C 236.792969 478.621094 218.566406 476 203 475.710938 C 185.644531 475.480469 167 478.183594 150 475 L 150 476 C 172.277344 483.347656 202.605469 477.242188 225.90625 477.820313 C 233.511719 478.007813 247.519531 474.636719 252 482 L 253 482 L 253 443 C 253 437.382813 254.1875 430.214844 252 425 M 144.332031 427.667969 C 144.277344 427.722656 144.222656 428.777344 144.667969 428.332031 C 144.722656 428.277344 144.777344 427.222656 144.332031 427.667969 M 144 430 L 145 431 L 144 430 M 144 433 L 145 434 L 144 433 M 144 436 L 144 439 L 145 439 C 144.75 437.546875 144.683594 437.246094 144 436 M 144 442 L 145 443 L 144 442 M 144 445 L 145 446 L 144 445 M 144 450 L 144 455 L 145 455 C 144.910156 453.035156 144.777344 451.769531 144 450 M 144 456 L 144 460 L 145 460 C 144.824219 458.316406 144.683594 457.507813 144 456 M 144 461 L 145 462 L 144 461 M 144 463 L 145 464 L 144 463 M 145 466 C 145.367188 469.390625 146.472656 472 148 475 L 149 475 C 148 471.824219 146.71875 469 145 466 M 37 472 C 38 473.457031 38.542969 474 40 475 C 39 473.078125 38.925781 473 37 472 M 252 477 L 251 478 L 252 477 "/>
<path style=" stroke:none;fill-rule:nonzero;fill:rgb(50.19989%,50.19989%,50.19989%);fill-opacity:1;" d="M 0 485 L 0 486 L 343 486 C 334.644531 482.492188 321 485 312 485 L 0 485 "/>
<path style=" stroke:none;fill-rule:nonzero;fill:rgb(62.69989%,62.69989%,62.69989%);fill-opacity:1;" d="M 343 485 L 344 486 L 343 485 "/>
</g>
</svg>
